<?xml version="1.0" encoding="UTF-8" standalone="no"?>
<svg
   xmlns:dc="http://purl.org/dc/elements/1.1/"
   xmlns:cc="http://creativecommons.org/ns#"
   xmlns:rdf="http://www.w3.org/1999/02/22-rdf-syntax-ns#"
   xmlns:svg="http://www.w3.org/2000/svg"
   xmlns="http://www.w3.org/2000/svg"
   xmlns:sodipodi="http://sodipodi.sourceforge.net/DTD/sodipodi-0.dtd"
   xmlns:inkscape="http://www.inkscape.org/namespaces/inkscape"
   version="1.1"
   x="0px"
   y="0px"
   viewBox="0 0 100 100"
   enable-background="new 0 0 100 100"
   xml:space="preserve"
   id="svg34"
   sodipodi:docname="css2.svg"
   inkscape:version="0.92.1 r15371"><metadata
     id="metadata40"><rdf:RDF><cc:Work
         rdf:about=""><dc:format>image/svg+xml</dc:format><dc:type
           rdf:resource="http://purl.org/dc/dcmitype/StillImage" /></cc:Work></rdf:RDF></metadata><defs
     id="defs38" /><sodipodi:namedview
     pagecolor="#ffffff"
     bordercolor="#666666"
     borderopacity="1"
     objecttolerance="10"
     gridtolerance="10"
     guidetolerance="10"
     inkscape:pageopacity="0"
     inkscape:pageshadow="2"
     inkscape:window-width="1366"
     inkscape:window-height="706"
     id="namedview36"
     showgrid="false"
     inkscape:object-paths="true"
     inkscape:snap-bbox="true"
     inkscape:zoom="3.7971634"
     inkscape:cx="42.993833"
     inkscape:cy="45.994942"
     inkscape:window-x="-8"
     inkscape:window-y="-8"
     inkscape:window-maximized="1"
     inkscape:current-layer="svg34" /><path
     d="m 63.423183,39.316958 c 0.973962,-2.792881 0.999534,-5.370854 -0.04837,-7.388579 -1.037892,-1.999159 -3.027509,-3.241729 -5.601393,-3.497484 -6.633168,-0.661435 -15.466089,8.103858 -16.683543,9.348748 -3.82858,0.672575 -6.627053,1.827882 -6.627053,3.419969 v 24.396976 c 4e-6,2.66895 7.860075,4.109718 15.254847,4.109718 7.395883,0 15.255399,-1.440768 15.255399,-4.109718 V 41.199612 c 0,-0.718064 -0.573147,-1.346543 -1.549889,-1.882654 z m 0.259056,1.882654 c 0,0.432137 -0.619844,0.921831 -1.77837,1.380426 0.431945,-0.744521 0.800517,-1.482079 1.110717,-2.208962 0.436949,0.284069 0.667653,0.56721 0.667653,0.828536 z M 57.62055,29.501724 c 2.129151,0.21166 3.709616,1.198938 4.569615,2.855543 0.773833,1.489042 0.981189,3.709606 0.09006,6.44029 -2.93356,-1.118638 -7.840616,-1.706735 -12.562552,-1.706735 -2.241445,0 -4.525697,0.133215 -6.619826,0.39222 2.67728,-2.528771 9.552271,-8.474261 14.5227,-7.981318 z m -16.102056,9.288871 c 0.04614,-0.0038 0.09172,-0.01071 0.136199,-0.02181 2.175848,-0.362513 4.894825,-0.599701 8.06298,-0.599701 5.700344,0 9.949754,0.766336 12.186752,1.651499 -0.335772,0.818787 -0.765494,1.677027 -1.305842,2.570545 -2.67506,-0.730132 -6.554785,-1.190583 -10.88091,-1.190583 -4.899828,0 -9.229289,0.591347 -11.87822,1.496468 -1.355875,-0.490622 -2.08579,-1.027661 -2.08579,-1.496468 0,-0.793258 2.083566,-1.781465 5.764831,-2.409943 z m 8.199179,29.83792 c -8.651694,0 -13.96401,-1.76522 -13.96401,-3.031462 V 42.934195 c 0.614285,0.377367 1.425364,0.711566 2.381536,1.001204 0.560918,0.775621 1.315294,2.065535 1.469838,3.565717 0.252385,2.447542 3.194283,6.155292 4.624095,2.81841 1.428699,-3.337347 3.866939,1.0388 4.119324,3.040744 0.251829,2.002409 2.017413,3.634413 2.942454,-2.373274 0.925597,-6.00676 1.513755,-1.037875 2.52274,-1.037875 0.902249,0 1.170755,-3.177209 1.939584,-4.962387 1.215785,-0.134609 2.37431,-0.310526 3.437773,-0.526828 -0.439172,0.582992 -0.922261,1.177122 -1.454827,1.782393 -0.211803,0.239975 -0.150096,0.577422 0.137311,0.753804 0.115074,0.07055 0.24905,0.104905 0.381913,0.104905 0.198462,0 0.394143,-0.07613 0.520892,-0.220015 0.833872,-0.946896 1.569902,-1.902148 2.216986,-2.85415 1.089592,-0.310063 2.009074,-0.674432 2.689513,-1.091717 V 65.59752 c -5.56e-4,1.265778 -5.312873,3.030998 -13.965122,3.030998 z"
     id="path32"
     inkscape:connector-curvature="0"
     style="fill:#008066;stroke-width:0.50797236" /></svg>