<?xml version="1.0" encoding="UTF-8" standalone="no"?>
<svg
   xmlns:dc="http://purl.org/dc/elements/1.1/"
   xmlns:cc="http://creativecommons.org/ns#"
   xmlns:rdf="http://www.w3.org/1999/02/22-rdf-syntax-ns#"
   xmlns:svg="http://www.w3.org/2000/svg"
   xmlns="http://www.w3.org/2000/svg"
   xmlns:sodipodi="http://sodipodi.sourceforge.net/DTD/sodipodi-0.dtd"
   xmlns:inkscape="http://www.inkscape.org/namespaces/inkscape"
   version="1.1"
   x="0px"
   y="0px"
   viewBox="0 0 100 100"
   enable-background="new 0 0 32 32"
   xml:space="preserve"
   id="svg160"
   sodipodi:docname="dat.svg"
   inkscape:version="0.92.1 r15371"><metadata
     id="metadata166"><rdf:RDF><cc:Work
         rdf:about=""><dc:format>image/svg+xml</dc:format><dc:type
           rdf:resource="http://purl.org/dc/dcmitype/StillImage" /></cc:Work></rdf:RDF></metadata><defs
     id="defs164" /><sodipodi:namedview
     pagecolor="#ffffff"
     bordercolor="#666666"
     borderopacity="1"
     objecttolerance="10"
     gridtolerance="10"
     guidetolerance="10"
     inkscape:pageopacity="0"
     inkscape:pageshadow="2"
     inkscape:window-width="1366"
     inkscape:window-height="706"
     id="namedview162"
     showgrid="false"
     inkscape:zoom="5.37"
     inkscape:cx="50"
     inkscape:cy="50"
     inkscape:window-x="-8"
     inkscape:window-y="-8"
     inkscape:window-maximized="1"
     inkscape:current-layer="svg160" /><g
     id="g148"
     transform="matrix(0.45714286,0,0,0.40314505,27.371909,28.76826)"
     style="fill:#008000"><polygon
       points="70,5 15,5 15,95 85,95 85,80 80,80 80,90 20,90 20,10 65,10 65,25 80,25 80,55 85,55 85,20 "
       id="polygon146"
       style="fill:#008000" /></g><g
     id="g158"
     transform="matrix(0.45714286,0,0,0.40314505,27.371909,28.76826)"
     style="fill:#008000"><g
       id="g156"
       style="fill:#008000"><path
         d="m 48.576,75.137 v -14.93 h 4.81 c 1.319,0 2.505,0.299 3.558,0.897 1.053,0.598 1.875,1.442 2.467,2.532 0.591,1.091 0.891,2.312 0.896,3.666 v 0.687 c 0,1.367 -0.289,2.593 -0.865,3.676 -0.578,1.083 -1.393,1.931 -2.441,2.543 -1.048,0.612 -2.22,0.921 -3.512,0.928 h -4.913 z m 3.6,-12.151 v 9.382 h 1.251 c 1.032,0 1.825,-0.367 2.379,-1.103 0.554,-0.734 0.831,-1.827 0.831,-3.276 v -0.646 c 0,-1.442 -0.277,-2.529 -0.831,-3.261 -0.554,-0.732 -1.36,-1.097 -2.42,-1.097 h -1.21 z"
         id="path150"
         inkscape:connector-curvature="0"
         style="fill:#008000" /><path
         d="m 69.57,72.348 h -4.932 l -0.861,2.789 h -3.846 l 5.476,-14.93 h 3.384 l 5.517,14.93 H 70.442 Z M 65.5,69.569 h 3.209 L 67.1,64.391 Z"
         id="path152"
         inkscape:connector-curvature="0"
         style="fill:#008000" /><path
         d="m 85,62.986 h -4.48 v 12.151 h -3.6 V 62.986 H 72.522 V 60.207 H 85 Z"
         id="path154"
         inkscape:connector-curvature="0"
         style="fill:#008000" /></g></g></svg>