<?xml version="1.0" encoding="UTF-8" standalone="no"?>
<svg
   xmlns:dc="http://purl.org/dc/elements/1.1/"
   xmlns:cc="http://creativecommons.org/ns#"
   xmlns:rdf="http://www.w3.org/1999/02/22-rdf-syntax-ns#"
   xmlns:svg="http://www.w3.org/2000/svg"
   xmlns="http://www.w3.org/2000/svg"
   xmlns:sodipodi="http://sodipodi.sourceforge.net/DTD/sodipodi-0.dtd"
   xmlns:inkscape="http://www.inkscape.org/namespaces/inkscape"
   version="1.1"
   x="0px"
   y="0px"
   viewBox="0 0 100 100"
   enable-background="new 0 0 100 100"
   xml:space="preserve"
   id="svg3682"
   sodipodi:docname="noun_821641_cc.svg"
   inkscape:version="0.92.1 r15371"><metadata
     id="metadata3688"><rdf:RDF><cc:Work
         rdf:about=""><dc:format>image/svg+xml</dc:format><dc:type
           rdf:resource="http://purl.org/dc/dcmitype/StillImage" /></cc:Work></rdf:RDF></metadata><defs
     id="defs3686" /><sodipodi:namedview
     pagecolor="#ffffff"
     bordercolor="#666666"
     borderopacity="1"
     objecttolerance="10"
     gridtolerance="10"
     guidetolerance="10"
     inkscape:pageopacity="0"
     inkscape:pageshadow="2"
     inkscape:window-width="1366"
     inkscape:window-height="706"
     id="namedview3684"
     showgrid="false"
     inkscape:snap-bbox="false"
     inkscape:zoom="5.37"
     inkscape:cx="50"
     inkscape:cy="50"
     inkscape:window-x="-8"
     inkscape:window-y="-8"
     inkscape:window-maximized="1"
     inkscape:current-layer="svg3682" /><path
     d="m 41.199148,57.95463 v -5.321535 h 1.761995 v 1.806457 h 1.642854 v -1.806457 h 1.761995 v 5.321535 h -1.761995 v -2.062901 h -1.642854 v 2.062901 z m 6.97326,0 v -5.321535 h 4.384844 V 53.9083 h -2.62285 v 0.70789 h 2.217215 v 1.221112 h -2.217215 v 0.823758 h 2.730973 v 1.293236 h -4.492967 z m 5.517039,0 1.88527,-2.767118 -1.717576,-2.554083 h 1.98203 l 0.734136,1.347663 0.800939,-1.347663 h 1.93692 l -1.776802,2.554083 1.836718,2.767118 h -1.989261 l -0.830896,-1.441159 -0.83434,1.441159 z M 62.13821,36 H 59.756745 40.128935 35.377366 C 34.618093,36 34,36.59937 34,37.335643 v 11.638124 12.651877 5.038713 C 34,67.40063 34.618093,68 35.377366,68 H 64.622634 C 65.381907,68 66,67.40063 66,66.664357 V 61.625644 48.973767 40.177223 Z m -8.694623,6.372018 h 1.520612 c 0.475536,0 0.860854,-0.415719 0.860854,-0.928939 v -4.441347 h 2.898666 v 6.399733 c 0,0.184319 -0.154609,0.333911 -0.344341,0.333911 H 44.305797 v -6.733644 h 8.276937 v 4.441347 c 0,0.51322 0.385317,0.928939 0.860853,0.928939 z M 43.272772,37.001732 v 6.733644 h -1.766471 c -0.190421,0 -0.344342,-0.149592 -0.344342,-0.333911 V 37.001732 Z M 35.033025,49.975833 H 64.966976 V 60.624246 H 35.033025 Z m 29.933951,16.688524 c 0,0.183985 -0.15461,0.333911 -0.344342,0.333911 H 35.377366 c -0.189732,0 -0.344341,-0.149926 -0.344341,-0.333911 V 61.625644 H 64.966976 Z M 35.033025,48.974101 V 37.335643 c 0,-0.183985 0.154609,-0.333911 0.344341,-0.333911 h 4.751569 v 6.399733 c 0,0.736607 0.617404,1.335643 1.377366,1.335643 h 16.873077 c 0.759273,0 1.377367,-0.599036 1.377367,-1.335643 v -6.399733 h 1.920047 l 3.290184,3.558487 v 8.413548 H 35.033025 Z"
     id="path3680"
     inkscape:connector-curvature="0"
     style="fill:#ffe680;stroke-width:0.33908603" /></svg>