<?xml version="1.0" encoding="UTF-8" standalone="no"?>
<svg
   xmlns:dc="http://purl.org/dc/elements/1.1/"
   xmlns:cc="http://creativecommons.org/ns#"
   xmlns:rdf="http://www.w3.org/1999/02/22-rdf-syntax-ns#"
   xmlns:svg="http://www.w3.org/2000/svg"
   xmlns="http://www.w3.org/2000/svg"
   xmlns:sodipodi="http://sodipodi.sourceforge.net/DTD/sodipodi-0.dtd"
   xmlns:inkscape="http://www.inkscape.org/namespaces/inkscape"
   version="1.1"
   x="0px"
   y="0px"
   viewBox="0 0 100 100"
   enable-background="new 0 0 100 100"
   xml:space="preserve"
   id="svg26"
   sodipodi:docname="inc.svg"
   inkscape:version="0.92.1 r15371"><metadata
     id="metadata32"><rdf:RDF><cc:Work
         rdf:about=""><dc:format>image/svg+xml</dc:format><dc:type
           rdf:resource="http://purl.org/dc/dcmitype/StillImage" /></cc:Work></rdf:RDF></metadata><defs
     id="defs30" /><sodipodi:namedview
     pagecolor="#ffffff"
     bordercolor="#666666"
     borderopacity="1"
     objecttolerance="10"
     gridtolerance="10"
     guidetolerance="10"
     inkscape:pageopacity="0"
     inkscape:pageshadow="2"
     inkscape:window-width="1366"
     inkscape:window-height="706"
     id="namedview28"
     showgrid="false"
     inkscape:zoom="5.37"
     inkscape:cx="50"
     inkscape:cy="50"
     inkscape:window-x="-8"
     inkscape:window-y="-8"
     inkscape:window-maximized="1"
     inkscape:current-layer="svg26" /><g
     id="g24"
     transform="matrix(0.44841793,0,0,0.44999438,28.412827,27.130769)"
     style="fill:#d35fbc"><path
       d="m 31.711,14.445 c -9.373,0 -16.999,7.625 -16.999,16.999 0,9.374 7.625,16.999 16.999,16.999 9.374,0 16.999,-7.627 16.999,-17 0,-9.373 -7.626,-16.998 -16.999,-16.998 z m 0,30.997 c -7.719,0 -13.999,-6.28 -13.999,-13.999 0,-7.719 6.28,-13.999 13.999,-13.999 7.719,0 13.999,6.28 13.999,13.999 0,7.72 -6.28,13.999 -13.999,13.999 z"
       id="path10"
       inkscape:connector-curvature="0"
       style="fill:#d35fbc" /><path
       d="M 39.707,24.944 26.682,35.347 23.909,32.172 c -0.546,-0.624 -1.493,-0.687 -2.117,-0.143 -0.624,0.545 -0.688,1.493 -0.143,2.117 l 3.717,4.256 c 0.296,0.339 0.712,0.513 1.13,0.513 0.329,0 0.66,-0.107 0.936,-0.328 L 41.578,27.289 c 0.647,-0.517 0.753,-1.46 0.236,-2.108 -0.515,-0.648 -1.459,-0.753 -2.107,-0.237 z"
       id="path12"
       inkscape:connector-curvature="0"
       style="fill:#d35fbc" /><path
       d="m 31.711,51.559 c -9.373,0 -16.999,7.625 -16.999,16.998 0,9.373 7.625,16.999 16.999,16.999 9.374,0 16.999,-7.626 16.999,-16.999 0,-9.373 -7.626,-16.998 -16.999,-16.998 z m 0,30.997 c -7.719,0 -13.999,-6.28 -13.999,-13.999 0,-7.719 6.28,-13.998 13.999,-13.998 7.719,0 13.999,6.279 13.999,13.998 0,7.719 -6.28,13.999 -13.999,13.999 z"
       id="path14"
       inkscape:connector-curvature="0"
       style="fill:#d35fbc" /><path
       d="M 39.707,62.058 26.682,72.46 23.909,69.285 c -0.546,-0.624 -1.493,-0.688 -2.117,-0.144 -0.624,0.544 -0.688,1.493 -0.143,2.116 l 3.717,4.256 c 0.296,0.339 0.712,0.514 1.13,0.514 0.329,0 0.66,-0.107 0.936,-0.328 L 41.578,64.401 c 0.647,-0.517 0.753,-1.461 0.236,-2.108 -0.515,-0.645 -1.459,-0.752 -2.107,-0.235 z"
       id="path16"
       inkscape:connector-curvature="0"
       style="fill:#d35fbc" /><path
       d="m 69.076,48.442 c 9.373,0 16.998,-7.626 16.998,-16.999 0,-9.373 -7.625,-16.999 -16.998,-16.999 -9.373,0 -16.999,7.626 -16.999,16.999 0,9.373 7.626,16.999 16.999,16.999 z m 0,-30.997 c 7.719,0 13.998,6.28 13.998,13.999 0,7.719 -6.279,13.999 -13.998,13.999 -7.719,0 -13.999,-6.28 -13.999,-13.999 0,-7.719 6.28,-13.999 13.999,-13.999 z"
       id="path18"
       inkscape:connector-curvature="0"
       style="fill:#d35fbc" /><path
       d="m 63.862,38.915 c 0.328,0 0.659,-0.107 0.936,-0.328 L 78.944,27.289 c 0.646,-0.517 0.753,-1.46 0.235,-2.108 -0.516,-0.647 -1.46,-0.752 -2.108,-0.236 L 64.047,35.347 61.275,32.172 c -0.545,-0.624 -1.492,-0.688 -2.116,-0.143 -0.624,0.545 -0.688,1.493 -0.144,2.117 l 3.717,4.256 c 0.295,0.338 0.711,0.513 1.13,0.513 z"
       id="path20"
       inkscape:connector-curvature="0"
       style="fill:#d35fbc" /><path
       d="m 69.076,51.559 c -9.373,0 -16.999,7.625 -16.999,16.998 0,9.373 7.626,16.999 16.999,16.999 9.373,0 16.998,-7.626 16.998,-16.999 0,-9.373 -7.625,-16.998 -16.998,-16.998 z m 0,30.997 c -7.719,0 -13.999,-6.28 -13.999,-13.999 0,-7.719 6.28,-13.998 13.999,-13.998 7.719,0 13.998,6.279 13.998,13.998 0,7.719 -6.279,13.999 -13.998,13.999 z"
       id="path22"
       inkscape:connector-curvature="0"
       style="fill:#d35fbc" /></g></svg>