<?xml version="1.0" encoding="UTF-8" standalone="no"?>
<svg
   xmlns:dc="http://purl.org/dc/elements/1.1/"
   xmlns:cc="http://creativecommons.org/ns#"
   xmlns:rdf="http://www.w3.org/1999/02/22-rdf-syntax-ns#"
   xmlns:svg="http://www.w3.org/2000/svg"
   xmlns="http://www.w3.org/2000/svg"
   xmlns:sodipodi="http://sodipodi.sourceforge.net/DTD/sodipodi-0.dtd"
   xmlns:inkscape="http://www.inkscape.org/namespaces/inkscape"
   version="1.1"
   x="0px"
   y="0px"
   viewBox="0 0 100 100"
   enable-background="new 0 0 100 100"
   xml:space="preserve"
   id="svg92"
   sodipodi:docname="ino.svg"
   inkscape:version="0.92.1 r15371"><metadata
     id="metadata98"><rdf:RDF><cc:Work
         rdf:about=""><dc:format>image/svg+xml</dc:format><dc:type
           rdf:resource="http://purl.org/dc/dcmitype/StillImage" /></cc:Work></rdf:RDF></metadata><defs
     id="defs96" /><sodipodi:namedview
     pagecolor="#ffffff"
     bordercolor="#666666"
     borderopacity="1"
     objecttolerance="10"
     gridtolerance="10"
     guidetolerance="10"
     inkscape:pageopacity="0"
     inkscape:pageshadow="2"
     inkscape:window-width="1366"
     inkscape:window-height="706"
     id="namedview94"
     showgrid="false"
     inkscape:zoom="4"
     inkscape:cx="47.455642"
     inkscape:cy="47.031976"
     inkscape:window-x="-8"
     inkscape:window-y="-8"
     inkscape:window-maximized="1"
     inkscape:current-layer="svg92" /><path
     d="M 66.058824,40.146771 C 66.579294,40.146771 67,39.772692 67,39.311773 67,38.850855 66.579294,38.476776 66.058824,38.476776 h -3.216 v -2.187694 h 3.216 C 66.579294,36.289082 67,35.915004 67,35.454085 67,34.993166 66.579294,34.619087 66.058824,34.619087 h -3.216 v -0.922672 c 0,-0.460919 -0.420706,-0.834998 -0.941177,-0.834998 H 40.098353 c -0.519529,0 -0.941177,0.374079 -0.941177,0.834998 v 0.922672 h -3.216 C 35.421647,34.619087 35,34.993166 35,35.454085 c 0,0.460919 0.421647,0.834997 0.941176,0.834997 h 3.216 v 2.187694 h -3.216 C 35.421647,38.476776 35,38.850855 35,39.311773 c 0,0.460919 0.421647,0.834998 0.941176,0.834998 h 3.216 V 42.3353 h -3.216 C 35.421647,42.3353 35,42.709379 35,43.170298 c 0,0.460918 0.421647,0.834998 0.941176,0.834998 h 3.216 v 2.189363 h -3.216 C 35.421647,46.194659 35,46.568738 35,47.029657 c 0,0.460918 0.421647,0.834997 0.941176,0.834997 h 3.216 v 2.186859 h -3.216 C 35.421647,50.051513 35,50.424757 35,50.88651 c 0,0.461755 0.421647,0.834998 0.941176,0.834998 h 3.216 v 2.188529 h -3.216 C 35.421647,53.910037 35,54.283281 35,54.745034 c 0,0.461755 0.421647,0.834998 0.941176,0.834998 h 3.216 v 2.190199 h -3.216 C 35.421647,57.770231 35,58.143475 35,58.605229 c 0,0.461754 0.421647,0.834997 0.941176,0.834997 h 3.216 v 2.188529 h -3.216 C 35.421647,61.628755 35,62.001999 35,62.463753 c 0,0.461754 0.421647,0.834997 0.941176,0.834997 h 3.216 v 0.768198 c 0,0.461754 0.421648,0.834998 0.941177,0.834998 h 21.803294 c 0.520471,0 0.941177,-0.373244 0.941177,-0.834998 V 63.29875 h 3.216 C 66.579294,63.29875 67,62.925507 67,62.463753 67,62.001999 66.579294,61.628755 66.058824,61.628755 h -3.216 v -2.188529 h 3.216 C 66.579294,59.440226 67,59.066983 67,58.605229 67,58.143475 66.579294,57.770231 66.058824,57.770231 h -3.216 v -2.190199 h 3.216 C 66.579294,55.580032 67,55.206789 67,54.745034 67,54.283281 66.579294,53.910037 66.058824,53.910037 h -3.216 v -2.188529 h 3.216 C 66.579294,51.721508 67,51.348265 67,50.88651 67,50.424757 66.579294,50.051513 66.058824,50.051513 h -3.216 v -2.186859 h 3.216 C 66.579294,47.864654 67,47.490575 67,47.029657 67,46.568738 66.579294,46.194659 66.058824,46.194659 h -3.216 v -2.189363 h 3.216 C 66.579294,44.005296 67,43.631216 67,43.170298 67,42.709379 66.579294,42.3353 66.058824,42.3353 h -3.216 V 40.146771 Z M 60.960471,63.232785 H 41.039529 V 34.531412 h 19.920942 z"
     id="path84"
     inkscape:connector-curvature="0"
     style="fill:#55d400;stroke-width:0.88649881" /><path
     d="m 57.595765,43.865851 c 0,-3.226431 -2.959059,-5.851664 -6.595765,-5.851664 -3.636706,0 -6.595765,2.625233 -6.595765,5.851664 0,2.130913 1.294118,3.992958 3.216941,5.016665 -1.922823,1.023707 -3.216941,2.885752 -3.216941,5.016666 0,3.226431 2.959059,5.851663 6.595765,5.851663 3.636706,0 6.595765,-2.625232 6.595765,-5.851663 0,-2.130914 -1.294118,-3.992959 -3.217883,-5.016666 1.923765,-1.023707 3.217883,-2.885752 3.217883,-5.016665 z m -1.882353,10.033331 c 0,2.306264 -2.113883,4.181669 -4.713412,4.181669 -2.598588,0 -4.713412,-1.875405 -4.713412,-4.181669 0,-2.306263 2.114824,-4.181668 4.713412,-4.181668 2.599529,0 4.713412,1.875405 4.713412,4.181668 z M 46.286588,43.865851 c 0,-2.306264 2.114824,-4.181669 4.713412,-4.181669 2.599529,0 4.713412,1.876241 4.713412,4.181669 0,2.305428 -2.113883,4.181667 -4.713412,4.181667 -2.598588,0 -4.713412,-1.876239 -4.713412,-4.181667 z"
     id="path86"
     inkscape:connector-curvature="0"
     style="fill:#bec8b7;stroke-width:0.88649881" /><path
     d="m 51,56.974479 c 0.520471,0 0.941176,-0.373245 0.941176,-0.834998 v -4.482267 c 0,-0.461754 -0.420705,-0.834998 -0.941176,-0.834998 -0.519529,0 -0.941176,0.373244 -0.941176,0.834998 v 4.482267 c 0,0.461753 0.421647,0.834998 0.941176,0.834998 z"
     id="path88"
     inkscape:connector-curvature="0"
     style="fill:#55d400;stroke-width:0.88649881" /><path
     d="m 53.528,43.031688 h -1.586824 v -1.406136 c 0,-0.460919 -0.420705,-0.834998 -0.941176,-0.834998 -0.519529,0 -0.941176,0.374079 -0.941176,0.834998 v 1.406136 h -1.585883 c -0.519529,0 -0.941176,0.374079 -0.941176,0.834998 0,0.460918 0.421647,0.834998 0.941176,0.834998 h 1.585883 v 1.4053 c 0,0.460919 0.421647,0.834998 0.941176,0.834998 0.520471,0 0.941176,-0.374079 0.941176,-0.834998 v -1.4053 H 53.528 c 0.520471,0 0.941176,-0.37408 0.941176,-0.834998 0,-0.460919 -0.421647,-0.834998 -0.941176,-0.834998 z"
     id="path90"
     inkscape:connector-curvature="0"
     style="fill:#55d400;stroke-width:0.88649881" /></svg>