<?xml version="1.0" encoding="UTF-8" standalone="no"?>
<!-- Generator: Adobe Illustrator 19.2.0, SVG Export Plug-In . SVG Version: 6.00 Build 0)  -->

<svg
   xmlns:dc="http://purl.org/dc/elements/1.1/"
   xmlns:cc="http://creativecommons.org/ns#"
   xmlns:rdf="http://www.w3.org/1999/02/22-rdf-syntax-ns#"
   xmlns:svg="http://www.w3.org/2000/svg"
   xmlns="http://www.w3.org/2000/svg"
   xmlns:sodipodi="http://sodipodi.sourceforge.net/DTD/sodipodi-0.dtd"
   xmlns:inkscape="http://www.inkscape.org/namespaces/inkscape"
   version="1.1"
   x="0px"
   y="0px"
   viewBox="0 0 50 50"
   style="enable-background:new 0 0 50 50;"
   xml:space="preserve"
   id="svg18"
   sodipodi:docname="sap.svg"
   inkscape:version="0.92.1 r15371"><metadata
     id="metadata24"><rdf:RDF><cc:Work
         rdf:about=""><dc:format>image/svg+xml</dc:format><dc:type
           rdf:resource="http://purl.org/dc/dcmitype/StillImage" /></cc:Work></rdf:RDF></metadata><defs
     id="defs22" /><sodipodi:namedview
     pagecolor="#ffffff"
     bordercolor="#666666"
     borderopacity="1"
     objecttolerance="10"
     gridtolerance="10"
     guidetolerance="10"
     inkscape:pageopacity="0"
     inkscape:pageshadow="2"
     inkscape:window-width="1366"
     inkscape:window-height="706"
     id="namedview20"
     showgrid="false"
     inkscape:zoom="10.74"
     inkscape:cx="35.537896"
     inkscape:cy="25.538058"
     inkscape:window-x="-8"
     inkscape:window-y="-8"
     inkscape:window-maximized="1"
     inkscape:current-layer="svg18"
     inkscape:snap-grids="true" /><g
     id="g16"
     transform="matrix(0.65772622,0,0,0.65772622,9.5117336,9.8800973)"><path
       d="M 28.5,21 H 27 v 3 h 1.5 C 29.3,24 30,23.3 30,22.5 30,21.7 29.3,21 28.5,21 Z"
       id="path10"
       inkscape:connector-curvature="0" /><path
       d="M 1,12 V 36 H 26 L 50,12 Z M 28.5,27 H 27 v 3 h -2 -1 -2.5 l -0.6,-1.8 c -0.7,0.3 -1.5,0.5 -2.4,0.5 -0.9,0 -1.7,-0.2 -2.4,-0.5 L 15.5,30 H 12 l 0.5,-1.2 C 11.6,29.5 10.2,30 8.4,30 5.1,30 4,29.1 4,29.1 l 0.8,-2.6 c 1.9,1.2 5.3,1 5.3,0 0,-1 -1.5,-1.1 -3.5,-1.7 C 4.7,24.2 4,22.7 4,21.4 4,20.1 5,18 8.4,18 c 3.4,0 4.5,0.8 4.5,0.8 0,0 -0.6,1.5 -0.9,2.3 -1,-0.4 -5,-1.1 -5,0.4 0,0.6 0.2,1 3.2,1.7 1.2,0.3 3,0.9 3.4,2.7 L 16.7,18 h 3.5 L 24,27.5 V 27 25 18 h 4.5 C 31,18 33,20 33,22.5 33,25 31,27 28.5,27 Z"
       id="path12"
       inkscape:connector-curvature="0" /><path
       d="m 17,25.7 c 0.4,0.3 0.9,0.4 1.5,0.4 0.6,0 1.1,-0.1 1.5,-0.4 l -1.5,-4.3 z"
       id="path14"
       inkscape:connector-curvature="0" /></g></svg>